<?xml version="1.0" encoding="utf-8"?>
<!-- Generator: Adobe Illustrator 21.0.2, SVG Export Plug-In . SVG Version: 6.00 Build 0)  -->
<svg version="1.1" id="Layer_1" xmlns="http://www.w3.org/2000/svg" xmlns:xlink="http://www.w3.org/1999/xlink" x="0px" y="0px"
	 viewBox="0 0 452.4 452.4" style="enable-background:new 0 0 452.4 452.4;" xml:space="preserve">
<style type="text/css">
	.st0{fill:none;}
</style>
<g>
	<circle cx="226.1" cy="226.1" r="84.5"/>
	<g>
		<g>
			<path d="M305.6,259.2c2.1-5.1,3.8-10.4,4.9-15.9l53.2,10.8c-1.8,8.9-4.5,17.6-8,26L305.6,259.2z"/>
			<path d="M302.1,266.5c2.6-4.9,4.7-10,6.4-15.3l19.8,6c-2,6.6-4.7,13-7.9,19L302.1,266.5z"/>
			<polygon points="296.2,275.9 297.5,274.2 298.6,272.4 299.8,270.6 300.8,268.8 339.5,291 337.9,293.7 336.2,296.5 334.4,299.2 
				332.6,301.8 			"/>
			<path d="M290.3,283.5c1.9-2.1,3.7-4.3,5.3-6.6l27.5,20.1c-2.3,3.2-4.8,6.3-7.4,9.2L290.3,283.5z"/>
			<path d="M283.7,290c2.6-2.4,5.2-4.9,7.5-7.7l48.7,42.1c-4,4.7-8.5,9.1-13,13.4L283.7,290z"/>
			<path d="M272.9,298.3c1.5-0.9,2.9-2,4.4-3c1.4-1.1,2.8-2.2,4.2-3.3l11,13c-1.6,1.4-3.3,2.7-5,4c-1.7,1.2-3.5,2.5-5.3,3.6
				L272.9,298.3z"/>
			<path d="M269.8,300.2c0.9-0.5,1.8-1.1,2.7-1.6c0.9-0.6,1.8-1.1,2.6-1.7l14.4,20.8c-1.1,0.8-2.2,1.5-3.4,2.2
				c-1.1,0.7-2.3,1.5-3.5,2.1L269.8,300.2z"/>
			<path d="M261.2,304.7c1.2-0.5,2.4-1.1,3.5-1.7c1.1-0.6,2.3-1.1,3.4-1.8l10.1,18c-1.4,0.8-2.8,1.5-4.3,2.3
				c-1.4,0.8-2.9,1.4-4.3,2.1L261.2,304.7z"/>
			<path d="M252.3,308.1c1.2-0.4,2.5-0.8,3.7-1.3l3.6-1.4l19.3,45.7c-1.9,0.8-3.8,1.5-5.7,2.3c-1.9,0.7-3.9,1.3-5.8,2L252.3,308.1z"
				/>
			<path d="M238.6,311.2c5-0.7,9.9-1.9,14.7-3.5l11.5,34.5c-6.8,2.3-13.9,3.9-21,5L238.6,311.2z"/>
			<path d="M220.9,312c5,0.3,10.1,0.2,15.1-0.4l5.7,49.3c-7.9,0.9-15.8,1.1-23.7,0.6L220.9,312z"/>
			<path d="M216.2,311.5c1.3,0.2,2.6,0.2,3.9,0.4c0.6,0,1.3,0.1,1.9,0.1l1.9,0l-1.8,68.9l-3.5-0.1c-1.2-0.1-2.3-0.1-3.5-0.2
				c-2.3-0.2-4.6-0.3-6.9-0.6L216.2,311.5z"/>
			<path d="M203.5,309.1c0.9,0.3,1.8,0.5,2.8,0.7c0.9,0.2,1.9,0.4,2.8,0.6c1.9,0.3,3.7,0.7,5.6,0.9l-4.2,31.9
				c-2.6-0.3-5.2-0.8-7.8-1.3c-1.3-0.3-2.6-0.6-3.8-0.9c-1.3-0.3-2.6-0.6-3.8-1L203.5,309.1z"/>
			<path d="M226.6,356.7l5.9-0.1c2-0.1,3.9-0.3,5.9-0.4l2.9,31.1c-2.4,0.2-4.8,0.4-7.3,0.5c-2.4,0.1-4.8,0.1-7.2,0.2L226.6,356.7z"
				/>
			<path d="M309.1,248.7c0.4-1.2,0.6-2.5,0.9-3.8c0.3-1.3,0.5-2.5,0.8-3.8l78.8,13.9c-0.4,2.5-0.9,4.9-1.5,7.4
				c-0.6,2.4-1.1,4.9-1.8,7.3L309.1,248.7z"/>
			<path d="M310.1,244.8c1.2-5.5,1.9-11.2,2-16.8l12.9,0.3c-0.1,6.5-0.9,13-2.3,19.4L310.1,244.8z"/>
			<path d="M195.1,306.3c5.2,2,10.5,3.5,16,4.5l-9.5,53.4c-8.9-1.6-17.7-4-26.1-7.3L195.1,306.3z"/>
			<path d="M187.6,303c5,2.5,10.1,4.5,15.5,6l-5.5,19.9c-6.6-1.8-13.1-4.3-19.2-7.4L187.6,303z"/>
			<path d="M178.1,297.5l3.6,2.3l3.7,2.1l-21.2,39.2c-1.9-1-3.7-2.1-5.6-3.2c-1.8-1.1-3.6-2.3-5.4-3.5L178.1,297.5z"/>
			<path d="M170.4,291.6c2.1,1.8,4.4,3.6,6.7,5.2l-19.4,27.9c-3.2-2.3-6.4-4.7-9.4-7.2L170.4,291.6z"/>
			<path d="M163.7,285.3c2.4,2.6,5.1,5,7.8,7.3l-40.9,49.7c-4.8-4-9.4-8.2-13.6-12.7L163.7,285.3z"/>
			<path d="M155.2,274.7c1,1.4,2,2.9,3.2,4.3c0.6,0.7,1.1,1.4,1.7,2.1l1.8,2L149,294.4l-2.1-2.4c-0.7-0.8-1.3-1.7-2-2.5
				c-1.3-1.7-2.6-3.4-3.8-5.2L155.2,274.7z"/>
			<polygon points="153.1,271.6 154.8,274.2 156.6,276.8 136.2,291.7 133.9,288.4 131.7,285 			"/>
			<path d="M140.2,223c-0.2,5,0.1,10.1,0.8,15.1L91.8,245c-1.1-7.9-1.5-15.8-1.2-23.7L140.2,223z"/>
			<path d="M140.5,218.3c-0.1,1.3-0.2,2.6-0.3,3.9l-0.1,3.9l-69-0.1c0-2.3,0.1-4.6,0.2-6.9c0.1-2.3,0.3-4.6,0.5-6.9L140.5,218.3z"/>
			<path d="M142.7,205.5l-0.6,2.8c-0.2,0.9-0.4,1.9-0.5,2.8c-0.4,1.9-0.6,3.8-0.8,5.7l-32-3.5c0.3-2.6,0.6-5.2,1.1-7.8
				c0.2-1.3,0.4-2.6,0.7-3.9l0.9-3.8L142.7,205.5z"/>
			<path d="M95.6,229.8l0.1,2.9l0.2,2.9c0.1,2,0.3,3.9,0.6,5.9l-31,3.7c-0.3-2.4-0.5-4.8-0.7-7.2l-0.2-3.6l-0.1-3.6L95.6,229.8z"/>
			<path d="M209.6,310.5c5.6,1.1,11.2,1.6,16.9,1.6l0,12.9c-6.5,0-13-0.6-19.4-1.8L209.6,310.5z"/>
			<path d="M141.1,213.1c-0.8,5.5-1.1,11-0.9,16.6L86,231.9c-0.4-9,0.1-18,1.5-26.9L141.1,213.1z"/>
			<path d="M142.7,205.1c-1.3,5.4-2.2,10.9-2.5,16.4l-20.7-1.1c0.4-6.8,1.4-13.7,3.1-20.4L142.7,205.1z"/>
			<polygon points="146.1,194.6 145.4,196.6 144.7,198.6 144,200.6 143.4,202.6 100.5,190.5 101.4,187.4 102.4,184.3 103.5,181.2 
				104.7,178.2 			"/>
			<path d="M150.2,185.9c-1.3,2.5-2.5,5.1-3.6,7.7l-31.5-12.9c1.5-3.7,3.2-7.2,5-10.7L150.2,185.9z"/>
			<path d="M154.9,178c-2,3-3.8,6-5.4,9.2L92.1,158c2.8-5.6,6-10.9,9.5-16.1L154.9,178z"/>
			<path d="M163.4,167.3c-1.3,1.3-2.4,2.7-3.6,4c-1.1,1.4-2.2,2.8-3.3,4.2l-13.7-10c1.2-1.7,2.6-3.4,3.9-5.1
				c1.4-1.6,2.7-3.3,4.3-4.8L163.4,167.3z"/>
			<path d="M166,164.7c-0.8,0.7-1.5,1.5-2.2,2.2c-0.7,0.8-1.5,1.5-2.1,2.3l-18.9-16.7c0.9-1,1.8-2,2.7-3c0.9-1,1.9-2,2.8-2.9
				L166,164.7z"/>
			<path d="M173.3,158.4c-1,0.8-2,1.6-3,2.5c-1,0.9-2,1.7-2.9,2.6l-14.1-15.1c1.1-1.1,2.4-2.2,3.6-3.2c1.2-1.1,2.5-2.1,3.7-3
				L173.3,158.4z"/>
			<path d="M181.1,152.9c-1.1,0.7-2.2,1.4-3.3,2.1l-3.2,2.2L145,117.4c1.6-1.2,3.3-2.4,5-3.5c1.7-1.1,3.4-2.2,5.1-3.3L181.1,152.9z"
				/>
			<path d="M193.6,146.5c-4.7,1.9-9.2,4.2-13.4,6.9l-19.4-30.7c6.1-3.8,12.5-7.2,19.1-9.9L193.6,146.5z"/>
			<path d="M210.6,141.6c-5,0.9-9.9,2.2-14.6,4l-17.4-46.5c7.5-2.8,15.2-4.9,23.1-6.3L210.6,141.6z"/>
			<path d="M215.4,140.8c-1.3,0.2-2.6,0.3-3.8,0.6c-1.3,0.2-2.6,0.4-3.8,0.7L193,74.8c2.3-0.5,4.6-0.9,6.9-1.3
				c2.3-0.4,4.6-0.7,6.9-1L215.4,140.8z"/>
			<path d="M228.3,140.2c-3.8-0.1-7.6,0.1-11.4,0.5l-3.4-32c5.2-0.5,10.4-0.8,15.7-0.6L228.3,140.2z"/>
			<path d="M194.4,99.5c-3.8,1-7.6,2.1-11.3,3.4l-10.3-29.5c4.6-1.6,9.3-3,14-4.2L194.4,99.5z"/>
			<path d="M140.2,224.1l0,1.9l0,1.9c0,1.3,0,2.6,0.2,3.9l-79.8,5.3c-0.2-2.5-0.3-5-0.3-7.4l-0.1-3.7l0.1-3.7L140.2,224.1z"/>
			<path d="M140.2,228.2c0.1,5.7,0.8,11.3,2.1,16.8l-12.6,2.8c-1.4-6.4-2.2-12.9-2.4-19.3L140.2,228.2z"/>
			<path d="M237.1,140.9c-5.5-0.7-11.1-0.9-16.6-0.5L217,86.2c9-0.6,18-0.3,26.9,0.8L237.1,140.9z"/>
			<path d="M245.1,142.3c-5.4-1.2-10.9-1.9-16.5-2.1l0.6-20.7c6.8,0.2,13.7,1,20.4,2.6L245.1,142.3z"/>
			<path d="M255.7,145.4l-4-1.4l-4.1-1.2l11.1-43.2c2.1,0.6,4.2,1.2,6.2,1.8c2,0.7,4.1,1.4,6.1,2.1L255.7,145.4z"/>
			<path d="M264.5,149.2c-2.5-1.3-5.1-2.4-7.8-3.4l12.1-31.8c3.7,1.4,7.3,3,10.9,4.8L264.5,149.2z"/>
			<path d="M272.5,153.8c-3-2-6.1-3.6-9.3-5.2L291,90.5c5.6,2.7,11.1,5.7,16.4,9.1L272.5,153.8z"/>
			<path d="M283.4,162c-1.4-1.2-2.7-2.4-4.1-3.4c-1.4-1.1-2.8-2.2-4.3-3.2l9.7-14c1.7,1.2,3.5,2.5,5.2,3.8c1.7,1.3,3.3,2.7,4.9,4.1
				L283.4,162z"/>
			<path d="M286.1,164.5l-2.3-2.2l-2.4-2.1l16.3-19.4l3.1,2.7c1,0.9,2,1.9,2.9,2.8L286.1,164.5z"/>
			<path d="M292.6,171.6l-2.5-2.9c-0.9-1-1.8-1.9-2.7-2.8l14.7-14.5c1.1,1.2,2.2,2.3,3.3,3.5c1.1,1.2,2.1,2.4,3.1,3.6L292.6,171.6z"
				/>
			<path d="M298.3,179.3c-0.7-1.1-1.4-2.1-2.2-3.2l-1.1-1.6l-1.2-1.5l39-30.7l1.9,2.4c0.6,0.8,1.2,1.6,1.8,2.5
				c1.2,1.7,2.4,3.3,3.4,5L298.3,179.3z"/>
			<path d="M304.9,191.7c-2-4.6-4.4-9.1-7.3-13.3l13.4-8.9c3.3,5,6.2,10.3,8.6,15.8L304.9,191.7z"/>
			<path d="M310.3,208.5c-1-4.9-2.5-9.8-4.4-14.5l46.1-18.5c3,7.4,5.3,15.1,6.9,22.9L310.3,208.5z"/>
			<path d="M311.2,213.3l-0.7-3.8c-0.2-1.3-0.6-2.5-0.8-3.8l67-16.4c0.5,2.3,1.1,4.5,1.5,6.8c0.4,2.3,0.8,4.6,1.2,6.9L311.2,213.3z"
				/>
			<path d="M312.1,226.1c-0.1-3.8-0.2-7.6-0.8-11.4l31.9-4.2c0.7,5.2,1,10.4,1.1,15.6H312.1z"/>
			<path d="M352,191.3c-1-3.8-2.3-7.5-3.7-11.2l29.2-11c1.7,4.6,3.3,9.2,4.5,13.9L352,191.3z"/>
			<path d="M222,140.2c-5.7,0.3-11.3,1.1-16.8,2.5l-3.1-12.5c6.3-1.6,12.8-2.5,19.3-2.8L222,140.2z"/>
			<path class="st0" d="M229.1,226.1c0-0.6-0.1-0.8-0.2-1.1c-0.1-0.3-0.3-0.7-0.7-1c-0.3-0.3-0.7-0.6-1-0.7
				c-0.3-0.1-0.5-0.2-1.1-0.2c-0.6,0-0.8,0.1-1.1,0.2c-0.3,0.1-0.7,0.3-1,0.7c-0.3,0.3-0.6,0.7-0.7,1c-0.1,0.3-0.2,0.5-0.2,1.1
				c0,0.6,0.1,0.8,0.2,1.1c0.1,0.3,0.3,0.7,0.7,1c0.3,0.3,0.7,0.6,1,0.7c0.3,0.1,0.5,0.2,1.1,0.2c0.6,0,0.8-0.1,1.1-0.2
				c0.3-0.1,0.7-0.3,1-0.7c0.3-0.3,0.6-0.7,0.7-1C229.1,227,229.1,226.8,229.1,226.1h83c0,11.3-2.2,22.5-6.5,32.9
				c-4.3,10.4-10.7,19.9-18.7,27.9c-8,8-17.5,14.3-27.9,18.7c-10.4,4.3-21.7,6.5-32.9,6.5c-11.3,0-22.5-2.2-32.9-6.5
				c-10.4-4.3-19.9-10.7-27.9-18.7c-8-8-14.3-17.5-18.7-27.9c-4.3-10.4-6.5-21.7-6.5-32.9c0-11.3,2.2-22.5,6.5-32.9
				c4.3-10.4,10.7-19.9,18.7-27.9c8-8,17.5-14.3,27.9-18.7c10.4-4.3,21.7-6.5,32.9-6.5c11.3,0,22.5,2.2,32.9,6.5
				c10.4,4.3,19.9,10.7,27.9,18.7c8,8,14.3,17.5,18.7,27.9c4.3,10.4,6.5,21.7,6.5,32.9H229.1z"/>
			<path d="M143.3,249.1c1.5,5.3,3.5,10.5,5.9,15.5l-48.5,24.3c-4-8.1-7.3-16.6-9.7-25.3L143.3,249.1z"/>
			<path d="M141.5,241.1c1,5.5,2.5,10.8,4.4,16l-19.3,7.5c-2.5-6.4-4.3-13.1-5.5-19.9L141.5,241.1z"/>
			<path d="M146.9,259.5l1.6,3.5c0.6,1.2,1.2,2.3,1.8,3.5l-70.6,37.6c-1.2-2.2-2.3-4.4-3.4-6.7c-1.1-2.3-2.1-4.6-3.1-6.8
				L146.9,259.5z"/>
			<path d="M148.5,263.2c2.4,5.1,5.4,10,8.8,14.5l-10.3,7.7c-3.9-5.2-7.3-10.8-10.1-16.7L148.5,263.2z"/>
		</g>
	</g>
</g>
</svg>
