<?xml version="1.0" encoding="utf-8"?>
<!-- Generator: Adobe Illustrator 21.0.2, SVG Export Plug-In . SVG Version: 6.00 Build 0)  -->
<svg version="1.1" id="Layer_1" xmlns="http://www.w3.org/2000/svg" xmlns:xlink="http://www.w3.org/1999/xlink" x="0px" y="0px"
	 viewBox="0 0 354 198" style="enable-background:new 0 0 354 198;" xml:space="preserve">
<style type="text/css">
	.st0{fill:#F2F2F2;}
</style>
<g>
	<path class="st0" d="M48.3,123.8c1.8,0,3.2-0.6,4-1.7c0.9-1.1,1.3-2.5,1.3-4v-8.8c0-1.9,0.2-3.5,0.5-5c0.4-1.5,1-2.7,1.9-3.7
		c0.9-1,2.2-1.7,3.8-2.2c1.6-0.5,3.7-0.8,6.3-0.8h0.4v5.8c-1.2,0-2.1,0.1-2.9,0.2c-0.8,0.2-1.4,0.5-1.9,0.9s-0.8,1-1.1,1.7
		c-0.2,0.7-0.3,1.6-0.3,2.7v8.6c0,2.4-0.3,4.3-0.9,5.7c-0.6,1.4-1.7,2.6-3.2,3.5c1.5,0.9,2.5,2.1,3.2,3.5c0.6,1.4,0.9,3.3,0.9,5.7
		v8.6c0,1.1,0.1,2,0.3,2.6c0.2,0.7,0.6,1.2,1.1,1.6s1.1,0.7,1.9,0.9c0.8,0.2,1.8,0.2,2.9,0.2v5.8c-2.7,0-4.9-0.2-6.5-0.7
		s-3-1.2-4-2.2c-1-1-1.6-2.2-2-3.6s-0.5-3.1-0.5-5v-8.9c0-1.5-0.4-2.9-1.3-4c-0.9-1.1-2.2-1.7-4-1.7V123.8z"/>
	<path class="st0" d="M71.6,144.6V99.2l7.3-1.2v15.5c0.8-0.3,1.7-0.5,2.8-0.7c1.1-0.2,2.1-0.3,3.1-0.3c2.5,0,4.6,0.4,6.3,1
		c1.7,0.7,3,1.7,4,2.9c1,1.3,1.7,2.8,2.1,4.5c0.4,1.8,0.6,3.7,0.6,5.9v17.6h-7.3v-16.5c0-1.7-0.1-3.1-0.3-4.3
		c-0.2-1.2-0.6-2.1-1.1-2.9c-0.5-0.7-1.2-1.3-2-1.6c-0.8-0.3-1.9-0.5-3.1-0.5c-1,0-1.9,0.1-2.9,0.3c-1,0.2-1.7,0.4-2.2,0.5v25H71.6z
		"/>
	<path class="st0" d="M116.9,112.4c2.4,0,4.4,0.3,6.1,0.9c1.6,0.6,2.9,1.4,3.9,2.5c1,1.1,1.7,2.4,2.1,3.9c0.4,1.5,0.6,3.2,0.6,5.1
		v19c-1.1,0.2-2.8,0.5-5.1,0.9c-2.3,0.3-4.8,0.5-7.6,0.5c-1.9,0-3.6-0.2-5.2-0.5c-1.6-0.4-2.9-0.9-4-1.7c-1.1-0.8-2-1.8-2.6-3.1
		c-0.6-1.3-0.9-2.9-0.9-4.7c0-1.8,0.3-3.3,1.1-4.6c0.7-1.2,1.6-2.2,2.8-3c1.2-0.8,2.6-1.3,4.2-1.7c1.6-0.3,3.2-0.5,4.9-0.5
		c0.8,0,1.6,0.1,2.5,0.1c0.9,0.1,1.8,0.3,2.8,0.5v-1.2c0-0.8-0.1-1.6-0.3-2.4c-0.2-0.8-0.6-1.4-1-2c-0.5-0.6-1.2-1-2-1.4
		c-0.8-0.3-1.9-0.5-3.1-0.5c-1.7,0-3.2,0.1-4.6,0.4c-1.4,0.2-2.5,0.5-3.4,0.8l-0.9-5.9c0.9-0.3,2.3-0.6,4-1
		C113,112.6,114.9,112.4,116.9,112.4z M117.5,139.5c2.2,0,3.9-0.1,5.1-0.4v-8c-0.4-0.1-1-0.2-1.7-0.4c-0.8-0.1-1.6-0.2-2.5-0.2
		c-0.8,0-1.6,0.1-2.4,0.2c-0.8,0.1-1.6,0.3-2.2,0.7c-0.7,0.3-1.2,0.8-1.6,1.4c-0.4,0.6-0.6,1.3-0.6,2.2c0,1.7,0.5,2.9,1.6,3.6
		C114.2,139.2,115.7,139.5,117.5,139.5z"/>
	<path class="st0" d="M136.8,128.9c0-2.3,0.4-4.5,1.1-6.5c0.7-2,1.7-3.8,3.1-5.2c1.3-1.5,3-2.6,4.9-3.5c1.9-0.8,4.1-1.3,6.5-1.3
		c3,0,5.8,0.5,8.4,1.6l-1.6,5.9c-0.8-0.4-1.8-0.7-2.8-0.9c-1.1-0.2-2.2-0.4-3.4-0.4c-2.8,0-5,0.9-6.5,2.7c-1.5,1.8-2.2,4.3-2.2,7.5
		c0,3.1,0.7,5.6,2.1,7.4c1.4,1.8,3.8,2.7,7.1,2.7c1.2,0,2.5-0.1,3.7-0.4c1.2-0.2,2.2-0.5,3.1-0.9l1,6c-0.8,0.4-2,0.8-3.6,1.1
		c-1.6,0.3-3.3,0.5-5,0.5c-2.7,0-5-0.4-7-1.2s-3.6-2-4.9-3.4c-1.3-1.5-2.3-3.2-2.9-5.2C137.1,133.5,136.8,131.3,136.8,128.9z"/>
	<path class="st0" d="M174.1,125.5c0.9-1,1.9-2,2.9-3.1c1-1.1,2.1-2.2,3.1-3.3c1-1.1,2-2.2,2.9-3.2s1.7-1.9,2.3-2.7h8.6
		c-2,2.2-4.1,4.6-6.3,7s-4.4,4.7-6.7,7c1.2,1,2.5,2.2,3.8,3.6c1.3,1.4,2.6,2.9,3.8,4.5c1.2,1.6,2.4,3.2,3.5,4.8
		c1.1,1.6,2,3.1,2.7,4.4h-8.4c-0.7-1.2-1.6-2.5-2.5-3.9c-0.9-1.4-1.9-2.7-3-4c-1.1-1.3-2.2-2.5-3.3-3.6c-1.1-1.1-2.2-2.1-3.3-2.9
		v14.4h-7.3V99.2l7.3-1.2V125.5z"/>
	<path class="st0" d="M207.8,139.4c1.9,0,3.3-0.2,4.2-0.7c0.9-0.5,1.3-1.2,1.3-2.4c0-1-0.5-1.9-1.4-2.6c-0.9-0.7-2.5-1.4-4.6-2.2
		c-1.3-0.5-2.5-1-3.6-1.5c-1.1-0.5-2.1-1.2-2.9-1.9c-0.8-0.7-1.4-1.6-1.9-2.6c-0.5-1-0.7-2.3-0.7-3.8c0-2.9,1.1-5.1,3.2-6.8
		c2.1-1.7,5-2.5,8.6-2.5c1.8,0,3.6,0.2,5.3,0.5c1.7,0.3,2.9,0.7,3.8,1l-1.3,5.9c-0.8-0.4-1.8-0.7-3.1-1c-1.2-0.3-2.7-0.5-4.3-0.5
		c-1.5,0-2.7,0.3-3.6,0.8c-0.9,0.5-1.4,1.3-1.4,2.3c0,0.5,0.1,1,0.3,1.4c0.2,0.4,0.5,0.8,0.9,1.1c0.4,0.3,1,0.7,1.7,1
		c0.7,0.3,1.6,0.7,2.6,1c1.7,0.6,3.2,1.3,4.4,1.9c1.2,0.6,2.2,1.3,3,2.1c0.8,0.8,1.4,1.7,1.7,2.7c0.4,1,0.5,2.2,0.5,3.6
		c0,3-1.1,5.3-3.3,6.8c-2.2,1.5-5.4,2.3-9.5,2.3c-2.8,0-5-0.2-6.7-0.7c-1.7-0.5-2.9-0.8-3.5-1.1l1.3-6.1c1.1,0.4,2.4,0.9,3.9,1.3
		C204.1,139.2,205.8,139.4,207.8,139.4z"/>
	<path class="st0" d="M241.4,129.5c-1.8,0-3.2,0.6-4.1,1.7c-0.9,1.1-1.3,2.5-1.3,4v8.9c0,1.9-0.2,3.6-0.5,5c-0.4,1.4-1,2.6-2,3.6
		c-1,1-2.3,1.7-4,2.2c-1.7,0.5-3.9,0.7-6.5,0.7v-5.8c2.3,0,3.9-0.4,4.9-1.1c0.9-0.7,1.4-2.2,1.4-4.3v-8.6c0-2.4,0.3-4.3,0.9-5.7
		c0.6-1.4,1.7-2.6,3.1-3.5c-1.5-0.9-2.5-2.1-3.1-3.5c-0.6-1.4-0.9-3.3-0.9-5.7v-8.6c0-1.1-0.1-2-0.3-2.7c-0.2-0.7-0.6-1.3-1-1.7
		s-1.1-0.7-1.9-0.9c-0.8-0.2-1.8-0.2-2.9-0.2v-5.8h0.4c2.6,0,4.7,0.3,6.3,0.8c1.6,0.5,2.9,1.2,3.8,2.2c0.9,1,1.6,2.2,1.9,3.7
		c0.4,1.5,0.5,3.1,0.5,5v8.8c0,1.6,0.4,2.9,1.3,4c0.9,1.1,2.2,1.7,4.1,1.7V129.5z"/>
</g>
<g>
	<path class="st0" d="M99.8,70.3c0,2.4-0.3,4.6-0.9,6.6c-0.6,2-1.5,3.7-2.7,5.2c-1.2,1.4-2.6,2.6-4.3,3.4c-1.7,0.8-3.7,1.2-5.9,1.2
		c-1.5,0-2.8-0.2-4.1-0.5c-1.2-0.4-2.3-0.8-3.1-1.2V96l-7.3,1.1V55.6c1.5-0.4,3.3-0.8,5.5-1.1s4.4-0.5,6.8-0.5
		c2.5,0,4.7,0.4,6.7,1.1c2,0.8,3.6,1.9,5,3.3c1.4,1.4,2.4,3.1,3.2,5.2C99.4,65.6,99.8,67.8,99.8,70.3z M92.4,70.5
		c0-3.2-0.7-5.8-2.2-7.6c-1.5-1.8-3.8-2.7-7-2.7c-0.7,0-1.4,0-2.1,0.1c-0.7,0.1-1.5,0.2-2.2,0.4v17.9c0.6,0.4,1.5,0.9,2.6,1.2
		c1.1,0.4,2.2,0.6,3.4,0.6c2.6,0,4.6-0.9,5.8-2.7C91.8,75.9,92.4,73.5,92.4,70.5z"/>
	<path class="st0" d="M125,61.2c-0.6-0.2-1.4-0.4-2.5-0.6c-1.1-0.2-2.3-0.3-3.7-0.3c-0.8,0-1.6,0.1-2.5,0.2
		c-0.9,0.2-1.5,0.3-1.9,0.4V86h-7.3V56.1c1.4-0.5,3.1-1,5.2-1.5c2.1-0.5,4.4-0.7,7-0.7c0.5,0,1,0,1.7,0.1c0.6,0.1,1.3,0.1,1.9,0.2
		c0.6,0.1,1.3,0.2,1.9,0.4c0.6,0.1,1.1,0.3,1.4,0.4L125,61.2z"/>
	<path class="st0" d="M159.5,70.3c0,2.5-0.4,4.7-1.1,6.8c-0.7,2-1.7,3.8-3.1,5.2c-1.3,1.4-2.9,2.6-4.8,3.4c-1.9,0.8-3.9,1.2-6.1,1.2
		c-2.2,0-4.3-0.4-6.1-1.2c-1.8-0.8-3.4-1.9-4.7-3.4c-1.3-1.4-2.4-3.2-3.1-5.2c-0.7-2-1.1-4.3-1.1-6.8c0-2.5,0.4-4.7,1.1-6.8
		c0.7-2,1.8-3.8,3.1-5.2c1.3-1.4,2.9-2.5,4.8-3.3c1.8-0.8,3.9-1.2,6.1-1.2c2.2,0,4.2,0.4,6.1,1.2c1.9,0.8,3.5,1.9,4.8,3.3
		c1.3,1.4,2.3,3.2,3.1,5.2C159.1,65.6,159.5,67.8,159.5,70.3z M152.1,70.3c0-3.1-0.7-5.6-2-7.4c-1.3-1.8-3.2-2.7-5.6-2.7
		s-4.3,0.9-5.6,2.7c-1.3,1.8-2,4.3-2,7.4c0,3.2,0.7,5.7,2,7.5c1.3,1.8,3.2,2.8,5.6,2.8s4.3-0.9,5.6-2.8
		C151.4,75.9,152.1,73.4,152.1,70.3z"/>
	<path class="st0" d="M195.1,70.3c0,2.4-0.3,4.6-0.9,6.6c-0.6,2-1.5,3.7-2.7,5.2c-1.2,1.4-2.6,2.6-4.3,3.4c-1.7,0.8-3.7,1.2-5.9,1.2
		c-1.5,0-2.8-0.2-4.1-0.5c-1.2-0.4-2.3-0.8-3.1-1.2V96l-7.3,1.1V55.6c1.5-0.4,3.3-0.8,5.5-1.1s4.4-0.5,6.8-0.5
		c2.5,0,4.7,0.4,6.7,1.1c2,0.8,3.6,1.9,5,3.3c1.4,1.4,2.4,3.1,3.2,5.2C194.7,65.6,195.1,67.8,195.1,70.3z M187.7,70.5
		c0-3.2-0.7-5.8-2.2-7.6c-1.5-1.8-3.8-2.7-7-2.7c-0.7,0-1.4,0-2.1,0.1c-0.7,0.1-1.5,0.2-2.2,0.4v17.9c0.6,0.4,1.5,0.9,2.6,1.2
		c1.1,0.4,2.2,0.6,3.4,0.6c2.6,0,4.6-0.9,5.8-2.7C187,75.9,187.7,73.5,187.7,70.5z"/>
	<path class="st0" d="M231.8,44.4V51H219v35h-7.6V51h-12.8v-6.5H231.8z"/>
	<path class="st0" d="M231.9,70.5c0-2.8,0.4-5.2,1.2-7.3c0.8-2.1,1.9-3.8,3.3-5.2c1.4-1.4,2.9-2.4,4.7-3.1c1.8-0.7,3.6-1.1,5.4-1.1
		c4.3,0,7.7,1.3,10.1,4c2.4,2.7,3.6,6.7,3.6,12c0,0.4,0,0.9,0,1.4c0,0.5-0.1,1-0.1,1.4h-20.7c0.2,2.5,1.1,4.5,2.7,5.9
		c1.6,1.4,3.9,2.1,6.9,2.1c1.8,0,3.4-0.2,4.8-0.5c1.5-0.3,2.6-0.7,3.5-1l1,5.9c-0.4,0.2-1,0.4-1.7,0.6c-0.7,0.2-1.5,0.4-2.4,0.6
		c-0.9,0.2-1.9,0.3-2.9,0.5c-1,0.1-2.1,0.2-3.2,0.2c-2.8,0-5.2-0.4-7.2-1.2s-3.7-2-5-3.4c-1.3-1.5-2.3-3.2-2.9-5.2
		C232.3,75,231.9,72.8,231.9,70.5z M253,67.2c0-1-0.1-2-0.4-2.9c-0.3-0.9-0.7-1.7-1.2-2.3c-0.5-0.7-1.2-1.2-2-1.6
		c-0.8-0.4-1.7-0.6-2.8-0.6c-1.1,0-2.1,0.2-2.9,0.6c-0.8,0.4-1.6,1-2.1,1.7c-0.6,0.7-1,1.5-1.4,2.3c-0.3,0.9-0.5,1.8-0.7,2.7H253z"
		/>
	<path class="st0" d="M266,70.3c0-2.3,0.4-4.5,1.1-6.5c0.7-2,1.7-3.8,3.1-5.2c1.3-1.5,3-2.6,4.9-3.5c1.9-0.8,4.1-1.3,6.5-1.3
		c3,0,5.8,0.5,8.4,1.6l-1.6,5.9c-0.8-0.4-1.8-0.7-2.8-0.9c-1.1-0.2-2.2-0.4-3.4-0.4c-2.8,0-5,0.9-6.5,2.7c-1.5,1.8-2.2,4.3-2.2,7.5
		c0,3.1,0.7,5.6,2.1,7.4c1.4,1.8,3.8,2.7,7.1,2.7c1.2,0,2.5-0.1,3.7-0.4c1.2-0.2,2.2-0.5,3.1-0.9l1,6c-0.8,0.4-2,0.8-3.6,1.1
		c-1.6,0.3-3.3,0.5-5,0.5c-2.7,0-5-0.4-7-1.2s-3.6-2-4.9-3.4c-1.3-1.5-2.3-3.2-2.9-5.2C266.3,74.9,266,72.7,266,70.3z"/>
	<path class="st0" d="M295.9,86V40.6l7.3-1.2V55c0.8-0.3,1.7-0.5,2.8-0.7c1.1-0.2,2.1-0.3,3.1-0.3c2.5,0,4.6,0.4,6.3,1
		c1.7,0.7,3,1.7,4,2.9c1,1.3,1.7,2.8,2.1,4.5c0.4,1.8,0.6,3.7,0.6,5.9V86h-7.3V69.5c0-1.7-0.1-3.1-0.3-4.3c-0.2-1.2-0.6-2.1-1.1-2.9
		c-0.5-0.7-1.2-1.3-2-1.6c-0.8-0.3-1.9-0.5-3.1-0.5c-1,0-1.9,0.1-2.9,0.3c-1,0.2-1.7,0.4-2.2,0.5v25H295.9z"/>
</g>
</svg>
